<svg width="390" height="763" viewBox="0 0 390 763" fill="none" xmlns="http://www.w3.org/2000/svg">
<path d="M133.203 399.311V361.96H153.187C156.44 361.96 159.061 362.952 161.053 364.941C163.041 366.93 164.037 369.37 164.037 372.264C164.037 376.938 162.081 380.059 158.17 381.626V381.733C161.423 382.641 163.223 385.553 163.568 390.469C163.568 390.538 163.601 391.194 163.673 392.432C163.742 393.67 163.804 394.568 163.855 395.128C163.906 395.685 164.044 396.403 164.269 397.275C164.495 398.147 164.778 398.828 165.127 399.315H156.978C156.702 398.619 156.495 397.773 156.356 396.777C156.218 395.784 156.098 394.623 155.993 393.297C155.888 391.971 155.786 390.996 155.68 390.366C155.404 388.344 154.804 386.897 153.888 386.026C152.972 385.154 151.508 384.718 149.501 384.718H141.352V399.315H133.203V399.311ZM141.352 368.341V378.857H150.279C154.016 378.857 155.884 377.077 155.884 373.52C155.884 369.963 154.016 368.341 150.279 368.341H141.352Z" fill="#F8FAFB"/>
<path d="M195.339 387.593H175.977C176.184 392.161 178.383 394.447 182.57 394.447C183.988 394.447 185.253 394.088 186.361 393.374C187.47 392.659 188.142 391.85 188.386 390.941H194.874C192.9 397.011 188.713 400.044 182.312 400.044C178.125 400.044 174.792 398.729 172.32 396.095C169.845 393.462 168.609 390.037 168.609 385.817C168.609 381.597 169.881 378.293 172.426 375.59C174.97 372.886 178.267 371.535 182.316 371.535C186.678 371.535 190.014 373.103 192.333 376.242C194.652 379.381 195.656 383.165 195.343 387.593H195.339ZM175.977 382.883H187.968C187.623 380.93 186.99 379.484 186.074 378.542C185.158 377.601 183.832 377.128 182.105 377.128C179.993 377.128 178.47 377.729 177.536 378.934C176.602 380.136 176.082 381.454 175.981 382.883H175.977Z" fill="#F8FAFB"/>
<path d="M199.905 399.311V372.264H206.861V375.927H206.967C209.01 372.996 211.743 371.531 215.167 371.531C219.078 371.531 221.691 373.029 223.007 376.029C225.05 373.029 227.747 371.531 231.105 371.531C234.151 371.531 236.547 372.308 238.295 373.861C240.043 375.414 240.916 377.864 240.916 381.212V399.311H233.544V383.985C233.544 383.147 233.526 382.451 233.493 381.894C233.457 381.337 233.355 380.744 233.181 380.114C233.006 379.487 232.766 378.996 232.454 378.648C232.141 378.3 231.701 378.004 231.131 377.758C230.56 377.516 229.859 377.392 229.03 377.392C225.74 377.392 224.098 379.678 224.098 384.245V399.311H216.726V384.139C216.726 383.198 216.719 382.491 216.701 382.022C216.683 381.549 216.595 380.967 216.443 380.271C216.286 379.575 216.061 379.051 215.767 378.703C215.472 378.355 215.032 378.048 214.444 377.788C213.855 377.527 213.128 377.396 212.263 377.396C211.812 377.396 211.347 377.484 210.86 377.656C210.376 377.831 209.838 378.117 209.25 378.52C208.661 378.923 208.185 379.568 207.821 380.454C207.458 381.344 207.276 382.399 207.276 383.619V399.311H199.905Z" fill="#F8FAFB"/>
<path d="M254.306 361.96V368.081H246.935V361.96H254.306ZM246.935 399.311V372.264H254.306V399.311H246.935Z" fill="#F8FAFB"/>
<path d="M260.122 399.311V372.264H267.129V376.029H267.286C268.184 374.564 269.368 373.451 270.841 372.681C272.313 371.916 273.861 371.531 275.486 371.531C279.19 371.531 281.748 372.473 283.17 374.355C284.587 376.238 285.3 379.011 285.3 382.674V399.308H277.928V384.033C277.928 381.766 277.565 380.092 276.838 379.011C276.111 377.93 274.901 377.388 273.203 377.388C271.197 377.388 269.743 378 268.841 379.22C267.94 380.44 267.493 382.41 267.493 385.132V399.308H260.122V399.311Z" fill="#F8FAFB"/>
<path d="M310.056 399.311V395.857H309.951C308.322 398.648 305.607 400.044 301.801 400.044C297.996 400.044 294.994 398.641 292.9 395.832C290.806 393.026 289.76 389.597 289.76 385.553C289.76 381.509 290.806 378.333 292.9 375.615C294.994 372.894 297.909 371.535 301.645 371.535C303.27 371.535 304.804 371.883 306.24 372.582C307.675 373.282 308.791 374.275 309.587 375.564H309.693V361.96H317.064V399.311H310.056ZM309.951 385.711C309.951 383.234 309.449 381.187 308.446 379.564C307.443 377.941 305.832 377.132 303.619 377.132C301.405 377.132 299.726 377.952 298.686 379.59C297.647 381.231 297.131 383.286 297.131 385.762C297.131 388.238 297.676 390.176 298.766 391.883C299.857 393.593 301.474 394.447 303.619 394.447C305.763 394.447 307.486 393.619 308.471 391.963C309.456 390.308 309.951 388.223 309.951 385.711Z" fill="#F8FAFB"/>
<path fill-rule="evenodd" clip-rule="evenodd" d="M114.6 364.029C110.289 359.685 104.336 357 97.7604 357C84.6379 357 74 367.638 74 380.76V403C74 404.105 74.8954 405 76 405H97.7604C104.336 405 110.289 402.315 114.6 397.971C118.911 393.626 121.575 387.626 121.575 381C121.575 374.374 118.911 368.374 114.6 364.029ZM109.039 384.864H101.213V392.751H93.5513V384.864H85.7257V377.139H93.5513V369.253H101.213V377.139H109.039V384.864Z" fill="#F8FAFB"/>
</svg>
